<svg xmlns="http://www.w3.org/2000/svg" viewBox="0 0 512 512" width="512" height="512"><rect width="512" height="512" rx="96" fill="#f6f3ec"/><g stroke="rgba(30,27,24,0.05)" stroke-width="1" fill="none"><line x1="0.0" y1="0" x2="0.0" y2="512"/><line x1="32.0" y1="0" x2="32.0" y2="512"/><line x1="64.0" y1="0" x2="64.0" y2="512"/><line x1="96.0" y1="0" x2="96.0" y2="512"/><line x1="128.0" y1="0" x2="128.0" y2="512"/><line x1="160.0" y1="0" x2="160.0" y2="512"/><line x1="192.0" y1="0" x2="192.0" y2="512"/><line x1="224.0" y1="0" x2="224.0" y2="512"/><line x1="256.0" y1="0" x2="256.0" y2="512"/><line x1="288.0" y1="0" x2="288.0" y2="512"/><line x1="320.0" y1="0" x2="320.0" y2="512"/><line x1="352.0" y1="0" x2="352.0" y2="512"/><line x1="384.0" y1="0" x2="384.0" y2="512"/><line x1="416.0" y1="0" x2="416.0" y2="512"/><line x1="448.0" y1="0" x2="448.0" y2="512"/><line x1="480.0" y1="0" x2="480.0" y2="512"/><line x1="512.0" y1="0" x2="512.0" y2="512"/><line x1="0" y1="0.0" x2="512" y2="0.0"/><line x1="0" y1="32.0" x2="512" y2="32.0"/><line x1="0" y1="64.0" x2="512" y2="64.0"/><line x1="0" y1="96.0" x2="512" y2="96.0"/><line x1="0" y1="128.0" x2="512" y2="128.0"/><line x1="0" y1="160.0" x2="512" y2="160.0"/><line x1="0" y1="192.0" x2="512" y2="192.0"/><line x1="0" y1="224.0" x2="512" y2="224.0"/><line x1="0" y1="256.0" x2="512" y2="256.0"/><line x1="0" y1="288.0" x2="512" y2="288.0"/><line x1="0" y1="320.0" x2="512" y2="320.0"/><line x1="0" y1="352.0" x2="512" y2="352.0"/><line x1="0" y1="384.0" x2="512" y2="384.0"/><line x1="0" y1="416.0" x2="512" y2="416.0"/><line x1="0" y1="448.0" x2="512" y2="448.0"/><line x1="0" y1="480.0" x2="512" y2="480.0"/><line x1="0" y1="512.0" x2="512" y2="512.0"/></g><g transform="translate(102.4 98.3) scale(2.5600)"><path d="M25 82 L60 45 L95 82" fill="none" stroke="#1e1b18" stroke-width="15" stroke-linejoin="round" stroke-linecap="round"/><line x1="17" y1="101" x2="103" y2="101" stroke="#a8322a" stroke-width="7" stroke-linecap="round"/><rect x="46.00" y="23.00" width="28.00" height="28.00" rx="1.8" transform="rotate(45 60.00 37.00)" fill="#e5182d"/></g></svg>